<?xml version="1.0" standalone="no"?>
<!DOCTYPE svg PUBLIC "-//W3C//DTD SVG 20010904//EN"
 "http://www.w3.org/TR/2001/REC-SVG-20010904/DTD/svg10.dtd">
<svg version="1.0" xmlns="http://www.w3.org/2000/svg"
 width="512.000000pt" height="512.000000pt" viewBox="0 0 512.000000 512.000000"
 preserveAspectRatio="xMidYMid meet">
<metadata>
Created by potrace 1.16, written by Peter Selinger 2001-2019
</metadata>
<g transform="translate(0.000000,512.000000) scale(0.100000,-0.100000)"
fill="#000000" stroke="none">
<path d="M2235 5105 c-462 -60 -885 -237 -1255 -523 -117 -91 -316 -287 -413
-407 -276 -342 -459 -746 -537 -1186 -28 -156 -39 -531 -21 -702 43 -399 182
-790 398 -1122 98 -150 184 -257 318 -394 419 -430 948 -690 1550 -760 134
-16 460 -13 605 4 748 93 1416 512 1833 1150 210 321 344 690 392 1075 20 162
20 477 0 640 -92 742 -510 1412 -1140 1826 -329 216 -695 350 -1085 399 -152
18 -501 18 -645 0z m-357 -1276 c23 -12 56 -37 72 -57 60 -72 60 -74 60 -771
0 -655 8 -872 35 -976 63 -242 227 -355 515 -355 289 0 445 109 516 360 16 59
18 131 24 840 6 771 6 775 28 831 47 116 159 175 286 149 72 -15 129 -57 163
-122 l28 -53 3 -745 c3 -770 -1 -869 -38 -1021 -112 -456 -511 -684 -1117
-640 -346 26 -530 95 -695 261 -72 72 -94 103 -132 182 -52 106 -88 237 -106
378 -8 66 -10 319 -8 840 l3 746 25 48 c62 121 209 166 338 105z"/>
</g>
</svg>
